# xmcd CD database file
#
# Track frame offsets:
#	150
#	16777
#	31167
#	49922
#	73487
#	89562
#	110777
#	123575
#	153020
#	165502
#	191460
#	202055
#	213452
#	231802
#	247525
#
# Disc length: 3492 seconds
#
# Revision: 0
# Processed by: cddbd v1.5.1PL0 Copyright (c) Steve Scherf et al.
# Submitted via: cdripper 1.0.10
#
DISCID=ca0da20f
DTITLE=Lovie Lee - Good Candy
DYEAR=1992
DGENRE=Blues
TTITLE0=Lovie's Boogie
TTITLE1=In Trouble
TTITLE2=Thinking of You
TTITLE3=Good Candy
TTITLE4=She's Gone
TTITLE5=Tricky Woman
TTITLE6=Whoopin' Thighs
TTITLE7=West Side Woman
TTITLE8=Chief Police
TTITLE9=Tell Me That You Love Me
TTITLE10=Woke up This Morning
TTITLE11=Stick Candy
TTITLE12=My Baby Left Me
TTITLE13=The Mule
TTITLE14=Little Girl
EXTD=YEAR: 1992
EXTT0=
EXTT1=
EXTT2=
EXTT3=
EXTT4=
EXTT5=
EXTT6=
EXTT7=
EXTT8=
EXTT9=
EXTT10=
EXTT11=
EXTT12=
EXTT13=
EXTT14=
PLAYORDER=
